<mxfile host="www.draw.io" modified="2019-10-18T08:38:35.403Z" agent="Mozilla/5.0 (Macintosh; Intel Mac OS X 10_14_0) AppleWebKit/537.36 (KHTML, like Gecko) Chrome/77.0.3865.90 Safari/537.36" etag="KBFkQQmq4NzGbRsy2cMl" version="12.1.3" type="github" pages="2">
  <diagram id="Y6tTRYtsbHOTUgFSEDFm" name="第 1 页">
    <mxGraphModel dx="932" dy="528" grid="1" gridSize="10" guides="1" tooltips="1" connect="1" arrows="1" fold="1" page="1" pageScale="1" pageWidth="826" pageHeight="1169" math="0" shadow="0">
      <root>
        <mxCell id="0"/>
        <mxCell id="1" parent="0"/>
        <mxCell id="UKIGuLHINSC2vppwHhPj-1" value="" style="rounded=0;whiteSpace=wrap;html=1;fontSize=18;" parent="1" vertex="1">
          <mxGeometry x="50" y="351" width="710" height="30" as="geometry"/>
        </mxCell>
        <mxCell id="UKIGuLHINSC2vppwHhPj-3" value="" style="rounded=0;whiteSpace=wrap;html=1;fontSize=18;" parent="1" vertex="1">
          <mxGeometry x="50" y="20" width="710" height="90" as="geometry"/>
        </mxCell>
        <mxCell id="UKIGuLHINSC2vppwHhPj-2" value="前台业务" style="text;html=1;strokeColor=none;fillColor=none;align=center;verticalAlign=middle;whiteSpace=wrap;rounded=0;fontSize=18;" parent="1" vertex="1">
          <mxGeometry x="360" y="30" width="90" height="20" as="geometry"/>
        </mxCell>
        <mxCell id="UKIGuLHINSC2vppwHhPj-4" value="PAAS（研发平台）" style="text;html=1;strokeColor=none;fillColor=none;align=center;verticalAlign=middle;whiteSpace=wrap;rounded=0;fontSize=18;" parent="1" vertex="1">
          <mxGeometry x="307" y="357" width="212" height="20" as="geometry"/>
        </mxCell>
        <mxCell id="UKIGuLHINSC2vppwHhPj-5" value="" style="rounded=0;whiteSpace=wrap;html=1;fontSize=18;" parent="1" vertex="1">
          <mxGeometry x="50" y="180" width="340" height="150" as="geometry"/>
        </mxCell>
        <mxCell id="UKIGuLHINSC2vppwHhPj-7" value="" style="rounded=0;whiteSpace=wrap;html=1;fontSize=18;" parent="1" vertex="1">
          <mxGeometry x="420" y="180" width="340" height="150" as="geometry"/>
        </mxCell>
        <mxCell id="UKIGuLHINSC2vppwHhPj-6" value="业务中台" style="text;html=1;strokeColor=none;fillColor=none;align=center;verticalAlign=middle;whiteSpace=wrap;rounded=0;fontSize=18;" parent="1" vertex="1">
          <mxGeometry x="175" y="190" width="90" height="20" as="geometry"/>
        </mxCell>
        <mxCell id="UKIGuLHINSC2vppwHhPj-9" style="edgeStyle=orthogonalEdgeStyle;rounded=0;orthogonalLoop=1;jettySize=auto;html=1;exitX=0.5;exitY=1;exitDx=0;exitDy=0;fontSize=18;" parent="1" source="UKIGuLHINSC2vppwHhPj-3" target="UKIGuLHINSC2vppwHhPj-3" edge="1">
          <mxGeometry relative="1" as="geometry"/>
        </mxCell>
        <mxCell id="UKIGuLHINSC2vppwHhPj-10" value="数据中台" style="text;html=1;strokeColor=none;fillColor=none;align=center;verticalAlign=middle;whiteSpace=wrap;rounded=0;fontSize=18;" parent="1" vertex="1">
          <mxGeometry x="545" y="190" width="90" height="20" as="geometry"/>
        </mxCell>
        <mxCell id="UKIGuLHINSC2vppwHhPj-12" value="" style="rounded=0;whiteSpace=wrap;html=1;fontSize=18;" parent="1" vertex="1">
          <mxGeometry x="50" y="130" width="710" height="30" as="geometry"/>
        </mxCell>
        <mxCell id="UKIGuLHINSC2vppwHhPj-11" value="多端适配(PC/H5/PAD/TV)" style="text;html=1;strokeColor=none;fillColor=none;align=center;verticalAlign=middle;whiteSpace=wrap;rounded=0;fontSize=18;" parent="1" vertex="1">
          <mxGeometry x="307" y="135" width="212" height="20" as="geometry"/>
        </mxCell>
        <mxCell id="UKIGuLHINSC2vppwHhPj-13" value="" style="rounded=0;whiteSpace=wrap;html=1;fontSize=18;" parent="1" vertex="1">
          <mxGeometry x="50" y="401" width="710" height="30" as="geometry"/>
        </mxCell>
        <mxCell id="UKIGuLHINSC2vppwHhPj-14" value="IAAS（机房、数据中心）" style="text;html=1;strokeColor=none;fillColor=none;align=center;verticalAlign=middle;whiteSpace=wrap;rounded=0;fontSize=18;" parent="1" vertex="1">
          <mxGeometry x="307" y="407" width="212" height="20" as="geometry"/>
        </mxCell>
        <mxCell id="UKIGuLHINSC2vppwHhPj-15" value="海尔" style="rounded=0;whiteSpace=wrap;html=1;fontSize=18;" parent="1" vertex="1">
          <mxGeometry x="220" y="67.5" width="70" height="25" as="geometry"/>
        </mxCell>
        <mxCell id="UKIGuLHINSC2vppwHhPj-22" value="日日顺" style="rounded=0;whiteSpace=wrap;html=1;fontSize=18;" parent="1" vertex="1">
          <mxGeometry x="370" y="67.5" width="70" height="25" as="geometry"/>
        </mxCell>
        <mxCell id="UKIGuLHINSC2vppwHhPj-24" value="车小微" style="rounded=0;whiteSpace=wrap;html=1;fontSize=18;" parent="1" vertex="1">
          <mxGeometry x="520" y="67.5" width="70" height="25" as="geometry"/>
        </mxCell>
        <mxCell id="UKIGuLHINSC2vppwHhPj-27" value="商城系统" style="rounded=0;whiteSpace=wrap;html=1;fontSize=18;" parent="1" vertex="1">
          <mxGeometry x="170" y="225" width="85" height="25" as="geometry"/>
        </mxCell>
        <mxCell id="UKIGuLHINSC2vppwHhPj-28" value="金融平台" style="rounded=0;whiteSpace=wrap;html=1;fontSize=18;" parent="1" vertex="1">
          <mxGeometry x="68" y="225" width="84" height="25" as="geometry"/>
        </mxCell>
        <mxCell id="UKIGuLHINSC2vppwHhPj-29" value="会员平台" style="rounded=0;whiteSpace=wrap;html=1;fontSize=18;" parent="1" vertex="1">
          <mxGeometry x="170" y="279" width="85" height="25" as="geometry"/>
        </mxCell>
        <mxCell id="UKIGuLHINSC2vppwHhPj-30" value="仓贮管理系统" style="rounded=0;whiteSpace=wrap;html=1;fontSize=18;" parent="1" vertex="1">
          <mxGeometry x="265" y="279" width="120" height="25" as="geometry"/>
        </mxCell>
        <mxCell id="UKIGuLHINSC2vppwHhPj-32" value="门店配送系统" style="rounded=0;whiteSpace=wrap;html=1;fontSize=18;" parent="1" vertex="1">
          <mxGeometry x="265" y="225" width="120" height="25" as="geometry"/>
        </mxCell>
        <mxCell id="UKIGuLHINSC2vppwHhPj-34" value="供应商评价" style="rounded=0;whiteSpace=wrap;html=1;fontSize=18;" parent="1" vertex="1">
          <mxGeometry x="60" y="279" width="100" height="25" as="geometry"/>
        </mxCell>
        <mxCell id="UKIGuLHINSC2vppwHhPj-36" value="数据协作" style="rounded=0;whiteSpace=wrap;html=1;fontSize=18;" parent="1" vertex="1">
          <mxGeometry x="450" y="225" width="80" height="25" as="geometry"/>
        </mxCell>
        <mxCell id="UKIGuLHINSC2vppwHhPj-37" value="趋势预测" style="rounded=0;whiteSpace=wrap;html=1;fontSize=18;" parent="1" vertex="1">
          <mxGeometry x="552.5" y="225" width="85" height="25" as="geometry"/>
        </mxCell>
        <mxCell id="UKIGuLHINSC2vppwHhPj-39" value="日志分析" style="rounded=0;whiteSpace=wrap;html=1;fontSize=18;" parent="1" vertex="1">
          <mxGeometry x="450" y="279" width="80" height="25" as="geometry"/>
        </mxCell>
        <mxCell id="UKIGuLHINSC2vppwHhPj-41" value="用户画像" style="rounded=0;whiteSpace=wrap;html=1;fontSize=18;" parent="1" vertex="1">
          <mxGeometry x="552.5" y="279" width="85" height="25" as="geometry"/>
        </mxCell>
        <mxCell id="UKIGuLHINSC2vppwHhPj-43" value="风险规避" style="rounded=0;whiteSpace=wrap;html=1;fontSize=18;" parent="1" vertex="1">
          <mxGeometry x="660" y="225" width="80" height="25" as="geometry"/>
        </mxCell>
        <mxCell id="UKIGuLHINSC2vppwHhPj-44" value="人工智能" style="rounded=0;whiteSpace=wrap;html=1;fontSize=18;" parent="1" vertex="1">
          <mxGeometry x="660" y="279" width="80" height="25" as="geometry"/>
        </mxCell>
      </root>
    </mxGraphModel>
  </diagram>
  <diagram id="PaZJHzUqX1qUUu_PirYD" name="Page-2">
    <mxGraphModel dx="932" dy="528" grid="1" gridSize="10" guides="1" tooltips="1" connect="1" arrows="1" fold="1" page="1" pageScale="1" pageWidth="850" pageHeight="1100" math="0" shadow="0">
      <root>
        <mxCell id="iOrOq3ocQT_MWQIMPA1d-0"/>
        <mxCell id="iOrOq3ocQT_MWQIMPA1d-1" parent="iOrOq3ocQT_MWQIMPA1d-0"/>
        <mxCell id="ydThWRVAc_qHG9r4aiZO-28" value="" style="edgeStyle=orthogonalEdgeStyle;rounded=0;orthogonalLoop=1;jettySize=auto;html=1;fontSize=15;" edge="1" parent="iOrOq3ocQT_MWQIMPA1d-1" source="ydThWRVAc_qHG9r4aiZO-19" target="ydThWRVAc_qHG9r4aiZO-27">
          <mxGeometry relative="1" as="geometry"/>
        </mxCell>
        <mxCell id="ydThWRVAc_qHG9r4aiZO-29" value="搭建跨境业务信息平台" style="text;html=1;resizable=0;points=[];align=center;verticalAlign=middle;labelBackgroundColor=#ffffff;fontSize=15;" vertex="1" connectable="0" parent="ydThWRVAc_qHG9r4aiZO-28">
          <mxGeometry x="-0.225" y="1" relative="1" as="geometry">
            <mxPoint as="offset"/>
          </mxGeometry>
        </mxCell>
        <mxCell id="ydThWRVAc_qHG9r4aiZO-19" value="" style="rounded=0;whiteSpace=wrap;html=1;fontSize=15;" vertex="1" parent="iOrOq3ocQT_MWQIMPA1d-1">
          <mxGeometry x="50" y="310" width="710" height="90" as="geometry"/>
        </mxCell>
        <mxCell id="ydThWRVAc_qHG9r4aiZO-27" value="" style="rounded=0;whiteSpace=wrap;html=1;fontSize=15;" vertex="1" parent="iOrOq3ocQT_MWQIMPA1d-1">
          <mxGeometry x="50" y="440" width="710" height="150" as="geometry"/>
        </mxCell>
        <mxCell id="iOrOq3ocQT_MWQIMPA1d-9" value="" style="edgeStyle=orthogonalEdgeStyle;rounded=0;orthogonalLoop=1;jettySize=auto;html=1;exitX=0.5;exitY=1;exitDx=0;exitDy=0;" edge="1" parent="iOrOq3ocQT_MWQIMPA1d-1" source="iOrOq3ocQT_MWQIMPA1d-2" target="iOrOq3ocQT_MWQIMPA1d-8">
          <mxGeometry relative="1" as="geometry">
            <mxPoint x="345" y="110" as="sourcePoint"/>
            <mxPoint x="345" y="500" as="targetPoint"/>
            <Array as="points"/>
          </mxGeometry>
        </mxCell>
        <mxCell id="iOrOq3ocQT_MWQIMPA1d-10" value="搭建中台" style="text;html=1;resizable=0;points=[];align=center;verticalAlign=middle;labelBackgroundColor=#ffffff;fontSize=15;" vertex="1" connectable="0" parent="iOrOq3ocQT_MWQIMPA1d-9">
          <mxGeometry x="-0.2333" relative="1" as="geometry">
            <mxPoint y="2" as="offset"/>
          </mxGeometry>
        </mxCell>
        <mxCell id="iOrOq3ocQT_MWQIMPA1d-2" value="" style="rounded=0;whiteSpace=wrap;html=1;fontSize=18;" vertex="1" parent="iOrOq3ocQT_MWQIMPA1d-1">
          <mxGeometry x="50" y="20" width="710" height="90" as="geometry"/>
        </mxCell>
        <mxCell id="iOrOq3ocQT_MWQIMPA1d-8" value="" style="rounded=0;whiteSpace=wrap;html=1;fontSize=18;" vertex="1" parent="iOrOq3ocQT_MWQIMPA1d-1">
          <mxGeometry x="50" y="150" width="710" height="160" as="geometry"/>
        </mxCell>
        <mxCell id="iOrOq3ocQT_MWQIMPA1d-3" value="平台" style="text;html=1;strokeColor=none;fillColor=none;align=center;verticalAlign=middle;whiteSpace=wrap;rounded=0;fontSize=18;" vertex="1" parent="iOrOq3ocQT_MWQIMPA1d-1">
          <mxGeometry x="360" y="30" width="90" height="20" as="geometry"/>
        </mxCell>
        <mxCell id="iOrOq3ocQT_MWQIMPA1d-4" style="edgeStyle=orthogonalEdgeStyle;rounded=0;orthogonalLoop=1;jettySize=auto;html=1;exitX=0.5;exitY=1;exitDx=0;exitDy=0;fontSize=18;" edge="1" parent="iOrOq3ocQT_MWQIMPA1d-1" source="iOrOq3ocQT_MWQIMPA1d-2" target="iOrOq3ocQT_MWQIMPA1d-2">
          <mxGeometry relative="1" as="geometry"/>
        </mxCell>
        <mxCell id="iOrOq3ocQT_MWQIMPA1d-5" value="海尔" style="rounded=0;whiteSpace=wrap;html=1;fontSize=18;" vertex="1" parent="iOrOq3ocQT_MWQIMPA1d-1">
          <mxGeometry x="220" y="67.5" width="70" height="25" as="geometry"/>
        </mxCell>
        <mxCell id="iOrOq3ocQT_MWQIMPA1d-6" value="日日顺" style="rounded=0;whiteSpace=wrap;html=1;fontSize=18;" vertex="1" parent="iOrOq3ocQT_MWQIMPA1d-1">
          <mxGeometry x="370" y="67.5" width="70" height="25" as="geometry"/>
        </mxCell>
        <mxCell id="iOrOq3ocQT_MWQIMPA1d-7" value="车小微" style="rounded=0;whiteSpace=wrap;html=1;fontSize=18;" vertex="1" parent="iOrOq3ocQT_MWQIMPA1d-1">
          <mxGeometry x="520" y="67.5" width="70" height="25" as="geometry"/>
        </mxCell>
        <mxCell id="ydThWRVAc_qHG9r4aiZO-0" value="数据建模" style="rounded=0;whiteSpace=wrap;html=1;fontSize=15;" vertex="1" parent="iOrOq3ocQT_MWQIMPA1d-1">
          <mxGeometry x="270" y="525" width="80" height="30" as="geometry"/>
        </mxCell>
        <mxCell id="ydThWRVAc_qHG9r4aiZO-1" value="日志分析" style="rounded=0;whiteSpace=wrap;html=1;fontSize=15;" vertex="1" parent="iOrOq3ocQT_MWQIMPA1d-1">
          <mxGeometry x="365" y="525" width="80" height="30" as="geometry"/>
        </mxCell>
        <mxCell id="ydThWRVAc_qHG9r4aiZO-2" value="用户画像" style="rounded=0;whiteSpace=wrap;html=1;fontSize=15;" vertex="1" parent="iOrOq3ocQT_MWQIMPA1d-1">
          <mxGeometry x="460" y="525" width="80" height="30" as="geometry"/>
        </mxCell>
        <mxCell id="ydThWRVAc_qHG9r4aiZO-3" value="用户中心" style="rounded=0;whiteSpace=wrap;html=1;fontSize=15;" vertex="1" parent="iOrOq3ocQT_MWQIMPA1d-1">
          <mxGeometry x="70" y="192.5" width="80" height="30" as="geometry"/>
        </mxCell>
        <mxCell id="ydThWRVAc_qHG9r4aiZO-4" value="支付中心" style="rounded=0;whiteSpace=wrap;html=1;fontSize=15;" vertex="1" parent="iOrOq3ocQT_MWQIMPA1d-1">
          <mxGeometry x="165" y="192.5" width="80" height="30" as="geometry"/>
        </mxCell>
        <mxCell id="ydThWRVAc_qHG9r4aiZO-5" value="商品中心" style="rounded=0;whiteSpace=wrap;html=1;fontSize=15;" vertex="1" parent="iOrOq3ocQT_MWQIMPA1d-1">
          <mxGeometry x="260" y="192.5" width="80" height="30" as="geometry"/>
        </mxCell>
        <mxCell id="ydThWRVAc_qHG9r4aiZO-6" value="搜索中心" style="rounded=0;whiteSpace=wrap;html=1;fontSize=15;" vertex="1" parent="iOrOq3ocQT_MWQIMPA1d-1">
          <mxGeometry x="70" y="237.5" width="80" height="30" as="geometry"/>
        </mxCell>
        <mxCell id="ydThWRVAc_qHG9r4aiZO-7" value="客服售后" style="rounded=0;whiteSpace=wrap;html=1;fontSize=15;" vertex="1" parent="iOrOq3ocQT_MWQIMPA1d-1">
          <mxGeometry x="165" y="237.5" width="80" height="30" as="geometry"/>
        </mxCell>
        <mxCell id="ydThWRVAc_qHG9r4aiZO-8" value="物流中心" style="rounded=0;whiteSpace=wrap;html=1;fontSize=15;" vertex="1" parent="iOrOq3ocQT_MWQIMPA1d-1">
          <mxGeometry x="390" y="217" width="80" height="30" as="geometry"/>
        </mxCell>
        <mxCell id="ydThWRVAc_qHG9r4aiZO-9" value="上门服务" style="rounded=0;whiteSpace=wrap;html=1;fontSize=15;" vertex="1" parent="iOrOq3ocQT_MWQIMPA1d-1">
          <mxGeometry x="390" y="262" width="80" height="30" as="geometry"/>
        </mxCell>
        <mxCell id="ydThWRVAc_qHG9r4aiZO-10" value="订单管理" style="rounded=0;whiteSpace=wrap;html=1;fontSize=15;" vertex="1" parent="iOrOq3ocQT_MWQIMPA1d-1">
          <mxGeometry x="555" y="170" width="80" height="30" as="geometry"/>
        </mxCell>
        <mxCell id="ydThWRVAc_qHG9r4aiZO-11" value="众包管理" style="rounded=0;whiteSpace=wrap;html=1;fontSize=15;" vertex="1" parent="iOrOq3ocQT_MWQIMPA1d-1">
          <mxGeometry x="555" y="215" width="80" height="30" as="geometry"/>
        </mxCell>
        <mxCell id="ydThWRVAc_qHG9r4aiZO-12" value="结算中心" style="rounded=0;whiteSpace=wrap;html=1;fontSize=15;" vertex="1" parent="iOrOq3ocQT_MWQIMPA1d-1">
          <mxGeometry x="555" y="260" width="80" height="30" as="geometry"/>
        </mxCell>
        <mxCell id="ydThWRVAc_qHG9r4aiZO-13" value="仓贮管理" style="rounded=0;whiteSpace=wrap;html=1;fontSize=15;" vertex="1" parent="iOrOq3ocQT_MWQIMPA1d-1">
          <mxGeometry x="390" y="172" width="80" height="30" as="geometry"/>
        </mxCell>
        <mxCell id="ydThWRVAc_qHG9r4aiZO-14" value="推荐系统" style="rounded=0;whiteSpace=wrap;html=1;fontSize=15;" vertex="1" parent="iOrOq3ocQT_MWQIMPA1d-1">
          <mxGeometry x="260" y="237.5" width="80" height="30" as="geometry"/>
        </mxCell>
        <mxCell id="ydThWRVAc_qHG9r4aiZO-18" value="日志分析" style="rounded=0;whiteSpace=wrap;html=1;fontSize=15;" vertex="1" parent="iOrOq3ocQT_MWQIMPA1d-1">
          <mxGeometry x="390" y="340" width="80" height="30" as="geometry"/>
        </mxCell>
        <mxCell id="ydThWRVAc_qHG9r4aiZO-20" value="业务中台" style="text;html=1;strokeColor=none;fillColor=none;align=center;verticalAlign=middle;whiteSpace=wrap;rounded=0;fontSize=15;" vertex="1" parent="iOrOq3ocQT_MWQIMPA1d-1">
          <mxGeometry x="730" y="185" width="30" height="85" as="geometry"/>
        </mxCell>
        <mxCell id="ydThWRVAc_qHG9r4aiZO-21" value="数据中台" style="text;html=1;strokeColor=none;fillColor=none;align=center;verticalAlign=middle;whiteSpace=wrap;rounded=0;fontSize=15;" vertex="1" parent="iOrOq3ocQT_MWQIMPA1d-1">
          <mxGeometry x="730" y="332" width="30" height="50" as="geometry"/>
        </mxCell>
        <mxCell id="ydThWRVAc_qHG9r4aiZO-24" value="日志分析" style="rounded=0;whiteSpace=wrap;html=1;fontSize=15;" vertex="1" parent="iOrOq3ocQT_MWQIMPA1d-1">
          <mxGeometry x="555" y="339" width="80" height="30" as="geometry"/>
        </mxCell>
        <mxCell id="ydThWRVAc_qHG9r4aiZO-25" value="" style="endArrow=classic;html=1;fontSize=15;exitX=0.286;exitY=1.011;exitDx=0;exitDy=0;exitPerimeter=0;entryX=0.25;entryY=0;entryDx=0;entryDy=0;" edge="1" parent="iOrOq3ocQT_MWQIMPA1d-1" source="iOrOq3ocQT_MWQIMPA1d-2" target="iOrOq3ocQT_MWQIMPA1d-8">
          <mxGeometry width="50" height="50" relative="1" as="geometry">
            <mxPoint x="50" y="470" as="sourcePoint"/>
            <mxPoint x="100" y="420" as="targetPoint"/>
          </mxGeometry>
        </mxCell>
        <mxCell id="ydThWRVAc_qHG9r4aiZO-26" value="" style="endArrow=classic;html=1;fontSize=15;exitX=0.286;exitY=1.011;exitDx=0;exitDy=0;exitPerimeter=0;entryX=0.75;entryY=0;entryDx=0;entryDy=0;" edge="1" parent="iOrOq3ocQT_MWQIMPA1d-1" target="iOrOq3ocQT_MWQIMPA1d-8">
          <mxGeometry width="50" height="50" relative="1" as="geometry">
            <mxPoint x="555.06" y="111.99000000000001" as="sourcePoint"/>
            <mxPoint x="529.5" y="151" as="targetPoint"/>
          </mxGeometry>
        </mxCell>
        <mxCell id="ydThWRVAc_qHG9r4aiZO-30" value="用户中心" style="rounded=0;whiteSpace=wrap;html=1;fontSize=15;" vertex="1" parent="iOrOq3ocQT_MWQIMPA1d-1">
          <mxGeometry x="97.5" y="470" width="80" height="30" as="geometry"/>
        </mxCell>
        <mxCell id="ydThWRVAc_qHG9r4aiZO-31" value="搜索中心" style="rounded=0;whiteSpace=wrap;html=1;fontSize=15;" vertex="1" parent="iOrOq3ocQT_MWQIMPA1d-1">
          <mxGeometry x="202.5" y="470" width="80" height="30" as="geometry"/>
        </mxCell>
        <mxCell id="ydThWRVAc_qHG9r4aiZO-32" value="客服售后" style="rounded=0;whiteSpace=wrap;html=1;fontSize=15;" vertex="1" parent="iOrOq3ocQT_MWQIMPA1d-1">
          <mxGeometry x="302.5" y="470" width="80" height="30" as="geometry"/>
        </mxCell>
        <mxCell id="ydThWRVAc_qHG9r4aiZO-33" value="物流中心" style="rounded=0;whiteSpace=wrap;html=1;fontSize=15;" vertex="1" parent="iOrOq3ocQT_MWQIMPA1d-1">
          <mxGeometry x="522.5" y="470" width="80" height="30" as="geometry"/>
        </mxCell>
        <mxCell id="ydThWRVAc_qHG9r4aiZO-34" value="订单管理" style="rounded=0;whiteSpace=wrap;html=1;fontSize=15;" vertex="1" parent="iOrOq3ocQT_MWQIMPA1d-1">
          <mxGeometry x="632.5" y="470" width="80" height="30" as="geometry"/>
        </mxCell>
        <mxCell id="ydThWRVAc_qHG9r4aiZO-35" value="推荐系统" style="rounded=0;whiteSpace=wrap;html=1;fontSize=15;" vertex="1" parent="iOrOq3ocQT_MWQIMPA1d-1">
          <mxGeometry x="412.5" y="470" width="80" height="30" as="geometry"/>
        </mxCell>
        <mxCell id="ydThWRVAc_qHG9r4aiZO-37" value="数据建模" style="rounded=0;whiteSpace=wrap;html=1;fontSize=15;" vertex="1" parent="iOrOq3ocQT_MWQIMPA1d-1">
          <mxGeometry x="70" y="339" width="80" height="30" as="geometry"/>
        </mxCell>
        <mxCell id="ydThWRVAc_qHG9r4aiZO-38" value="日志分析" style="rounded=0;whiteSpace=wrap;html=1;fontSize=15;" vertex="1" parent="iOrOq3ocQT_MWQIMPA1d-1">
          <mxGeometry x="165" y="339" width="80" height="30" as="geometry"/>
        </mxCell>
        <mxCell id="ydThWRVAc_qHG9r4aiZO-39" value="用户画像" style="rounded=0;whiteSpace=wrap;html=1;fontSize=15;" vertex="1" parent="iOrOq3ocQT_MWQIMPA1d-1">
          <mxGeometry x="260" y="339" width="80" height="30" as="geometry"/>
        </mxCell>
      </root>
    </mxGraphModel>
  </diagram>
</mxfile>
